-
      the fast  and The Hottest Private Tracker on the net

Please Seed back to make the speed Faster!!
 ............ NFO .............
-[IMG]http://i.imgur.com/uLLg4Kn.jpg[/IMG]

Source: Space.Soldiers.2013.German.DL.1080p.BluRay.x264-EPHEMERiD
 
http://www.imdb.com/title/tt1564369/

A team of space scavengers discovers superior alien technology that threatens the balance of the known universe. Hotly pursued by a rival crew of intergalactic mercenaries, the Revelator crew must fight through the deepest reaches of space to locate and protect the life-altering device.

General
Complete name                            : Scavengers 2013 BRRip x264 AAC-OFFLiNE.mp4
Format                                   : MPEG-4
Format profile                           : Base Media
Codec ID                                 : isom
File size                                : 1.41 GiB
Duration                                 : 1h 33mn
Overall bit rate mode                    : Variable
Overall bit rate                         : 2 162 Kbps
Encoded date                             : UTC 2013-03-22 02:49:44
Tagged date                              : UTC 2013-03-22 02:49:44

Video
ID                                       : 1
Format                                   : AVC
Format/Info                              : Advanced Video Codec
Format profile                           : High@L4.1
Format settings, CABAC                   : Yes
Format settings, ReFrames                : 3 frames
Codec ID                                 : avc1
Codec ID/Info                            : Advanced Video Coding
Duration                                 : 1h 33mn
Bit rate mode                            : Variable
Bit rate                                 : 1 834 Kbps
Maximum bit rate                         : 40.0 Mbps
Width                                    : 720 pixels
Height                                   : 304 pixels
Display aspect ratio                     : 2.35:1
Frame rate mode                          : Constant
Frame rate                               : 23.976 fps
Color space                              : YUV
Chroma subsampling                       : 4:2:0
Bit depth                                : 8 bits
Scan type                                : Progressive
Bits/(Pixel*Frame)                       : 0.349
Stream size                              : 1.20 GiB (85%)
Writing library                          : x264 core 130 r2273 b3065e6

Audio
ID                                       : 2
Format                                   : AAC
Format/Info                              : Advanced Audio Codec
Format profile                           : LC
Codec ID                                 : 40
Duration                                 : 1h 33mn
Bit rate mode                            : Variable
Bit rate                                 : 326 Kbps
Maximum bit rate                         : 411 Kbps
Channel(s)                               : 6 channels
Channel positions                        : Front: L C R, Side: L R, LFE
Sampling rate                            : 48.0 KHz
Compression mode                         : Lossy
Stream size                              : 218 MiB (15%)
Language                                 : English
Encoded date                             : UTC 2013-03-22 00:46:19
Tagged date                              : UTC 2013-03-22 02:50:05

[IMG]http://i.imgur.com/o1eMPCk.png[/IMG]
[IMG]http://i.imgur.com/XaVp1Zn.png[/IMG]
[IMG]http://i.imgur.com/CFwfZMw.png[/IMG]
[IMG]http://i.imgur.com/4nxlRXZ.png[/IMG]
[IMG]http://i.imgur.com/8BAkpKR.png[/IMG]
[IMG]http://i.imgur.com/svxPYNI.png[/IMG]

Greets: To Our Friends